<svg width="18" height="23" viewBox="0 0 18 23" fill="none" xmlns="http://www.w3.org/2000/svg">
<path d="M0.51664 12.163L0.51803 12.1546L0.519138 12.1462C0.781225 10.1618 1.11285 8.21154 1.45137 6.22076C1.47777 6.06551 1.50421 5.91001 1.53066 5.75423L1.5307 5.75424L1.53172 5.74771C1.56554 5.5313 1.595 5.31853 1.62412 5.10829C1.68738 4.65155 1.74897 4.20681 1.84985 3.76293C1.99379 3.12957 2.20433 2.57432 2.56229 2.13092C3.49808 0.979595 4.73011 0.577066 6.12289 0.510288C7.19852 0.458717 8.31234 0.606859 9.42576 0.754948C9.78937 0.803308 10.1529 0.851664 10.5151 0.893066L10.5186 0.893442C11.4687 0.995239 12.4473 1.1546 13.4962 1.32541C13.6827 1.35577 13.8714 1.3865 14.0625 1.41733L14.0625 1.41741L14.0714 1.41869L14.3447 1.45772C14.9935 1.57926 15.4817 1.66063 15.9659 1.74133L15.9668 1.74148L16.0076 1.74828H16.049H16.1301H17.0095V9.60592V9.60734V9.60877V9.61019V9.61162V9.61304V9.61446V9.61588V9.6173V9.61872V9.62014V9.62155V9.62297V9.62438V9.6258V9.62721V9.62862V9.63004V9.63145V9.63286V9.63426V9.63567V9.63708V9.63849V9.63989V9.6413V9.6427V9.6441V9.64551V9.64691V9.64831V9.64971V9.65111V9.6525V9.6539V9.6553V9.65669V9.65809V9.65948V9.66088V9.66227V9.66366V9.66505V9.66644V9.66783V9.66922V9.67061V9.67199V9.67338V9.67477V9.67615V9.67753V9.67892V9.6803V9.68168V9.68306V9.68444V9.68582V9.6872V9.68858V9.68996V9.69133V9.69271V9.69409V9.69546V9.69683V9.69821V9.69958V9.70095V9.70232V9.70369V9.70506V9.70643V9.7078V9.70917V9.71054V9.7119V9.71327V9.71463V9.716V9.71736V9.71873V9.72009V9.72145V9.72281V9.72417V9.72553V9.72689V9.72825V9.72961V9.73097V9.73233V9.73368V9.73504V9.73639V9.73775V9.7391V9.74046V9.74181V9.74316V9.74451V9.74586V9.74722V9.74857V9.74992V9.75126V9.75261V9.75396V9.75531V9.75666V9.758V9.75935V9.76069V9.76204V9.76338V9.76473V9.76607V9.76741V9.76875V9.7701V9.77144V9.77278V9.77412V9.77546V9.7768V9.77814V9.77947V9.78081V9.78215V9.78349V9.78482V9.78616V9.78749V9.78883V9.79016V9.7915V9.79283V9.79417V9.7955V9.79683V9.79816V9.79949V9.80083V9.80216V9.80349V9.80482V9.80615V9.80748V9.80881V9.81013V9.81146V9.81279V9.81412V9.81544V9.81677V9.8181V9.81942V9.82075V9.82207V9.8234V9.82472V9.82605V9.82737V9.82869V9.83002V9.83134V9.83266V9.83398V9.8353V9.83663V9.83795V9.83927V9.84059V9.84191V9.84323V9.84455V9.84587V9.84719V9.8485V9.84982V9.85114V9.85246V9.85378V9.85509V9.85641V9.85773V9.85904V9.86036V9.86168V9.86299V9.86431V9.86562V9.86694V9.86825V9.86957V9.87088V9.87219V9.87351V9.87482V9.87614V9.87745V9.87876V9.88007V9.88139V9.8827V9.88401V9.88532V9.88664V9.88795V9.88926V9.89057V9.89188V9.89319V9.8945V9.89581V9.89713V9.89844V9.89975V9.90106V9.90237V9.90368V9.90499V9.9063V9.90761V9.90891V9.91022V9.91153V9.91284V9.91415V9.91546V9.91677V9.91808V9.91939V9.92069V9.922V9.92331V9.92462V9.92593V9.92724V9.92854V9.92985V9.93116V9.93247V9.93377V9.93508V9.93639V9.9377V9.93901V9.94031V9.94162V9.94293V9.94424V9.94554V9.94685V9.94816V9.94947V9.95077V9.95208V9.95339V9.9547V9.956V9.95731V9.95862V9.95993V9.96123V9.96254V9.96385V9.96516V9.96646V9.96777V9.96908V9.97039V9.97169V9.973V9.97431V9.97562V9.97693V9.97824V9.97954V9.98085V9.98216V9.98347V9.98478V9.98609V9.9874V9.9887V9.99001V9.99132V9.99263V9.99394V9.99525V9.99656V9.99787V9.99918V10.0005V10.0018V10.0031V10.0044V10.0057V10.007V10.0084V10.0097V10.011V10.0123V10.0136V10.0149V10.0162V10.0175V10.0188V10.0202V10.0215V10.0228V10.0241V10.0254V10.0267V10.028V10.0294V10.0307V10.032V10.0333V10.0346V10.0359V10.0372V10.0386V10.0399V10.0412V10.0425V10.0438V10.0451V10.0465V10.0478V10.0491V10.0504V10.0517V10.053V10.0544V10.0557V10.057V10.0583V10.0596V10.061V10.0623V10.0636V10.0649V10.0662V10.0676V10.0689V10.0702V10.0715V10.0729V10.0742V10.0755V10.0768V10.0781V10.0795V10.0808V10.0821V10.0835V10.0848V10.0861V10.0874V10.0888V10.0901V10.0914V10.0927V10.0941V10.0954V10.0967V10.0981V10.0994V10.1007V10.1021V10.1034V10.1047V10.106V10.1074V10.1087V10.11V10.1114V10.1127V10.1141V10.1154V10.1167V10.1181V10.1194V10.1207V10.1221V10.1234V10.1247V10.1261V10.1274V10.1288V10.1301V10.1315V10.1328V10.1341V10.1355V10.1368V10.1382V10.1395V10.1409V10.1422V10.1435V10.1449V10.1462V10.1476V10.1489V10.1503V10.1516V10.153V10.1543V10.1557V10.157V10.1584V10.1597V10.1611V10.1624V10.1638V10.1652V10.1665V10.1679V10.1692V10.1706V10.1719V10.1733V10.1747V10.176V10.1774V10.1787V10.1801V10.1815V10.1828V10.1842V10.1855V10.1869V10.1883V10.1896V10.191V10.1924V10.1937V10.1951V10.1965V10.1979V10.1992V10.2006V10.202V10.2033V10.2047V10.2061V10.2075V10.2088V10.2102V10.2116V10.213V10.2143V10.2157V10.2171V10.2185V10.2199V10.2212V10.2226V10.224V10.2254V10.2268V10.2282V10.2296V10.2309V10.2323V10.2337V10.2351V10.2365V10.2379V10.2393V10.2407V10.2421V10.2435V10.2449V10.2462V10.2476V10.249V10.2504V10.2518V10.2532V10.2546V10.256V10.2574V10.2588V10.2603V10.2617V10.2631V10.2645V10.2659V10.2673V10.2687V10.2701V10.2715V10.2729V10.2743V10.2757V10.2772V10.2786V10.28V10.2814V10.2828V10.2842V10.2857V10.2871V10.2885V10.2899V10.2914V10.2928V10.2942V10.2956V10.4579C17.0095 10.5561 17.0014 10.6662 16.991 10.8066L16.9906 10.8115C16.981 10.9408 16.97 11.0922 16.969 11.2477C16.9599 11.338 16.9238 11.4091 16.7848 11.4998C16.6114 11.613 16.3318 11.7168 15.8991 11.8357C15.6667 11.8779 15.4586 11.9594 15.3658 11.9958C15.3458 12.0036 15.3312 12.0093 15.3229 12.0121L15.2708 12.0295L15.2237 12.0577C15.1996 12.0722 15.1619 12.094 15.119 12.1188C15.0467 12.1606 14.9598 12.2109 14.8983 12.249C14.7802 12.3221 14.6406 12.4169 14.5189 12.5386L14.4586 12.5988L14.455 12.6025L14.4545 12.603L14.454 12.6034L14.4536 12.6039L14.4531 12.6044L14.4527 12.6048L14.4522 12.6053L14.4513 12.6062L14.444 12.6135L14.4404 12.6171L14.4386 12.6189L14.4368 12.6207L14.4297 12.6278L14.4279 12.6295L14.4262 12.6313L14.4244 12.633L14.4236 12.6339L14.4231 12.6344L14.4227 12.6348L14.4158 12.6417L14.4089 12.6486L14.4022 12.6553L14.3534 12.7041L14.348 12.7095L14.3467 12.7108L14.3461 12.7114L14.3457 12.7117L14.3454 12.7121L14.3441 12.7134L14.3428 12.7146L14.333 12.7244L14.3291 12.7283C14.0223 12.9939 13.7624 13.2971 13.5297 13.5686L13.5209 13.579L13.5191 13.5811L12.4711 14.7902C12.271 15.0071 12.0924 15.2079 11.9253 15.3958C11.6698 15.6829 11.4411 15.94 11.2031 16.1789C10.8223 16.5162 10.5497 16.9335 10.3383 17.3139C9.93705 18.0276 9.67967 18.8571 9.51129 19.8253L9.5112 19.8253L9.50971 19.8349C9.42834 20.3639 9.34463 20.9478 9.30246 21.5771C9.28942 21.7261 9.24649 21.7791 9.22298 21.8009C9.19485 21.8269 9.12654 21.8698 8.96692 21.8858H8.9668H8.96656H8.96633H8.96609H8.96585H8.96561H8.96537H8.96514H8.9649H8.96466H8.96442H8.96419H8.96395H8.96371H8.96347H8.96323H8.963H8.96276H8.96252H8.96228H8.96205H8.96181H8.96157H8.96133H8.9611H8.96086H8.96062H8.96038H8.96014H8.95991H8.95967H8.95943H8.95919H8.95896H8.95872H8.95848H8.95824H8.958H8.95777H8.95753H8.95729H8.95705H8.95682H8.95658H8.95634H8.9561H8.95587H8.95563H8.95539H8.95515H8.95492H8.95468H8.95444H8.9542H8.95396H8.95373H8.95349H8.95325H8.95301H8.95278H8.95254H8.9523H8.95206H8.95182H8.95159H8.95135H8.95111H8.95087H8.95064H8.9504H8.95016H8.94992H8.94969H8.94945H8.94921H8.94897H8.94873H8.9485H8.94826H8.94802H8.94778H8.94755H8.94731H8.94707H8.94683H8.94659H8.94636H8.94612H8.94588H8.94564H8.94541H8.94517H8.94493H8.94469H8.94446H8.94422H8.94398H8.94374H8.9435H8.94327H8.94303H8.94279H8.94255H8.94232H8.94208H8.94184H8.9416H8.94136H8.94113H8.94089H8.94065H8.94041H8.94018H8.93994H8.9397H8.93946H8.93923H8.93899H8.93875H8.93851H8.93827H8.93804H8.9378H8.93756H8.93732H8.93709H8.93685H8.93661H8.93637H8.93614H8.9359H8.93566H8.93542H8.93518H8.93495H8.93471H8.93447H8.93423H8.934H8.93376H8.93352H8.93328H8.93304H8.93281H8.93257H8.93233H8.93209H8.93186H8.93162H8.93138H8.93114H8.93091H8.93067H8.93043H8.93019H8.92995H8.92972H8.92948H8.92924H8.929H8.92877H8.92853H8.92829H8.92805H8.92781H8.92758H8.92734H8.9271H8.92686H8.92663H8.92639H8.92615H8.92591H8.92568H8.92544H8.9252H8.92496H8.92472H8.92449H8.92425H8.92401H8.92377H8.92354H8.9233H8.92306H8.92282H8.92258H8.92235H8.92211H8.92187H8.92163H8.9214H8.92116H8.92092H8.92068H8.92045H8.92021H8.91997H8.91973H8.91949H8.91926H8.91902H8.91878H8.91854H8.91831H8.91807H8.91783H8.91759H8.91736H8.91712H8.91688H8.91664H8.9164H8.91617H8.91593H8.91569H8.91545H8.91522H8.91498H8.91474H8.9145H8.91426H8.91403H8.91379H8.91355H8.91331H8.91308H8.91284H8.9126H8.91236H8.91213H8.91189H8.91165H8.91141H8.91117H8.91094H8.9107H8.91046H8.91022H8.90999H8.90975H8.90951H8.90927H8.90903H8.9088H8.90856H8.90832H8.90808H8.90785H8.90761H8.90737H8.90713H8.9069H8.90666H8.90642H8.90618H8.90594H8.90571H8.90547H8.90523H8.90499H8.90476H8.90452H8.90428H8.90404H8.9038H8.90357H8.90333H8.90309H8.90285H8.90262H8.90238H8.90214H8.9019H8.90167H8.90143H8.90119H8.90095H8.90071H8.90048H8.90024H8.9H8.89976H8.89953H8.89929H8.89905H8.89881H8.89857H8.89834H8.8981H8.89786H8.89762H8.89739H8.89715H8.89691H8.89667H8.89644H8.8962H8.89596H8.89572H8.89548H8.89525H8.89501H8.89477H8.89453H8.8943H8.89406H8.89382H8.89358H8.89335H8.89311H8.89287H8.89263H8.89239H8.89216H8.89192H8.89168H8.89144H8.89121H8.89097H8.89073H8.89049H8.89025H8.89002H8.88978H8.88954H8.8893H8.88907H8.88883H8.88859H8.88835H8.88812H8.88788H8.88764H8.8874H8.88717H8.88693H8.88669H8.88645H8.88621H8.88598H8.88574H8.8855H8.88526H8.88503H8.88479H8.88455H8.88431H8.88407H8.88384H8.8836H8.88336H8.88312H8.88289H8.88265H8.88241H8.88217H8.88194H8.8817H8.88146H8.88122H8.88098H8.88075H8.88051H8.88027H8.88003H8.8798H8.87956H8.87932H8.87908H8.87884H8.87861H8.87837H8.87813H8.87789H8.87766H8.87742H8.87718H8.87694H8.87671H8.87647H8.87623H8.87599H8.87575H8.87552H8.87528H8.87504H8.8748H8.87457H8.87433H8.87409H8.87385H8.87361H8.87338H8.87314H8.8729H8.87266H8.87243H8.87219H8.87195H8.87171H8.87148H8.87124H8.871H8.87076H8.87052H8.87029H8.87005H8.86981H8.86957H8.86934H8.8691H8.86886H8.86862H8.86838H8.86815H8.86791C8.46655 21.8858 8.07469 21.7863 7.71637 21.5583L7.71492 21.5573C7.07568 21.1536 6.62833 20.4372 6.52419 19.6871C6.45343 19.0421 6.52181 18.3832 6.78973 17.5024C6.89246 17.1736 6.98475 16.8556 7.07548 16.5432L7.07611 16.541C7.16759 16.2259 7.2575 15.9162 7.35717 15.5973L7.35746 15.5964L7.72017 14.4276C7.72381 14.4164 7.72715 14.4048 7.73014 14.3929L6.76756 14.1234C6.80292 14.01 6.87048 13.9405 6.9075 13.9084C6.94879 13.8726 6.98525 13.8545 6.99913 13.8479C7.01772 13.8391 7.02958 13.8357 7.02925 13.8359C7.02909 13.836 7.02599 13.8369 7.01929 13.8385C6.984 13.8468 6.91598 13.8577 6.8104 13.8688C6.60463 13.8905 6.32259 13.9065 6.02217 13.9191C5.79671 13.9286 5.56854 13.9359 5.36234 13.9425C5.29523 13.9446 5.23045 13.9467 5.16885 13.9487C4.95697 13.9558 4.73478 13.9632 4.62433 13.9786C3.56366 14.1009 2.54989 14.2006 1.66389 13.9258C1.63125 13.9117 1.60166 13.9012 1.57727 13.8934C1.57336 13.8921 1.56953 13.8909 1.56582 13.8897L1.55123 13.8751L1.44511 13.8398C1.41661 13.8184 1.38847 13.8017 1.36275 13.7889C1.34016 13.7776 1.31836 13.7687 1.298 13.7616L1.26132 13.7432L1.25275 13.739L1.18018 13.7027L1.15575 13.6904L1.14937 13.6873C0.682257 13.2918 0.431843 12.6717 0.51664 12.163Z" fill="white" stroke="white"/>
</svg>
