<svg width="18" height="24" viewBox="0 0 18 24" fill="none" xmlns="http://www.w3.org/2000/svg">
<path d="M17.976 10.5938C18.1011 9.84303 17.7258 9.00888 17.1002 8.50838L17.0167 8.46668C16.975 8.42497 16.975 8.42497 16.9333 8.42497L16.8499 8.38326C16.8499 8.38326 16.8082 8.38326 16.8082 8.34155L16.6831 8.29985C16.6414 8.25814 16.558 8.25814 16.4745 8.21643C15.4319 7.88277 14.264 8.00789 13.1796 8.13301C12.9294 8.17472 10.5938 8.17472 10.5521 8.34155L10.9274 7.13203C11.136 6.4647 11.3028 5.83909 11.5113 5.17176C11.8033 4.21248 11.8867 3.46174 11.8033 2.711C11.6782 1.79343 11.136 0.917571 10.3435 0.417078C9.88473 0.125123 9.38424 0 8.88374 0C8.84204 0 8.80033 0 8.75862 0C8.25813 0.0417078 7.96617 0.291954 7.92447 0.792448C7.88276 1.41806 7.79934 2.00197 7.71593 2.54417C7.5491 3.50345 7.29885 4.2959 6.92348 4.96322C6.71494 5.33859 6.4647 5.71396 6.13103 6.00592C5.71396 6.423 5.29688 6.92349 4.79639 7.46569L3.71199 8.71692C3.46174 9.00888 3.21149 9.30083 2.91954 9.55108C2.87783 9.59279 2.79442 9.6762 2.711 9.75962C2.54417 9.92645 2.29392 10.0516 2.08539 10.1767C1.96026 10.2184 1.79343 10.3018 1.54319 10.3435C0.625615 10.5938 0.0834148 10.844 0.0417071 11.4279C0.0417071 11.7199 0 12.0118 0 12.2621V12.4289C0 12.6792 0 12.8877 0 13.1379V21.7297H1.41806H1.50148C2.00197 21.8132 2.50246 21.8966 3.16979 22.0217L3.46174 22.0634C4.75468 22.2719 5.9642 22.4805 7.13202 22.6056C10.0516 22.9393 13.5967 23.8151 15.7655 21.1458C16.6414 20.0614 16.7248 18.5182 16.9333 17.1836C17.3087 14.9731 17.6841 12.8043 17.976 10.5938Z" fill="white"/>
</svg>
